<svg xmlns="http://www.w3.org/2000/svg" width="128" height="128" viewBox="0 0 128 128" role="img" aria-labelledby="title desc">
  <title id="title">Magnetile icon</title>
  <desc id="desc">A dark rounded square with blue magnetic tiling zones connected by attraction marks.</desc>

  <rect x="8" y="8" width="112" height="112" rx="16" fill="#31363b"/>
  <rect x="13" y="13" width="102" height="102" rx="12" fill="none" stroke="#eff0f1" stroke-width="2" opacity=".18"/>

  <g fill="#eff0f1" opacity=".95">
    <rect x="22" y="24" width="31" height="80" rx="5"/>
    <rect x="61" y="24" width="45" height="35" rx="5"/>
    <rect x="61" y="69" width="20" height="35" rx="5"/>
    <rect x="86" y="69" width="20" height="35" rx="5"/>
  </g>

  <g fill="#3daee9">
    <rect x="26" y="29" width="23" height="5" rx="2.5"/>
    <rect x="65" y="29" width="37" height="5" rx="2.5"/>
    <rect x="65" y="74" width="12" height="5" rx="2.5"/>
    <rect x="90" y="74" width="12" height="5" rx="2.5"/>
  </g>

  <g fill="none" stroke="#3daee9" stroke-linecap="round" stroke-linejoin="round">
    <path d="M57 64h-7c-5 0-9-4-9-9v-5" stroke-width="4"/>
    <path d="M57 64h9c5 0 9 4 9 9v5" stroke-width="4"/>
    <path d="M82 64h9c5 0 9-4 9-9v-5" stroke-width="4"/>
    <path d="M82 64h-9c-5 0-9 4-9 9v5" stroke-width="4"/>
    <path d="M55 49l7 15-7 15" stroke-width="5"/>
    <path d="M84 49l-7 15 7 15" stroke-width="5"/>
  </g>

  <circle cx="64" cy="64" r="7" fill="#3daee9"/>
  <circle cx="64" cy="64" r="3" fill="#eff0f1"/>
</svg>
